# xmcd
#
# Track frame offsets:
# 150
# 19137
# 37267
# 53925
# 71607
# 90070
# 113862
# 130530
# 147052
# 165560
# 178295
# 196280
# 211587
# 232077
#
# Disc length: 3305 seconds
#
#
# Revision: 0
# Processed by: cddbd v1.5.2PL0 Copyright (c) Steve Scherf et al.
# Submitted via: Nero 7, 11, 10, 0 
#
DISCID=bd0ce70e
DTITLE=Richie Milton and The Lowdown - Coming Back For More
DYEAR=1998
DGENRE=Blues
TTITLE0=When Baby Don't Wanna Play
TTITLE1=It's Getting Harder
TTITLE2=Wise To Your Jive
TTITLE3=You Wanna Take A Mile
TTITLE4=Free From Loving You
TTITLE5=Salty Water
TTITLE6=Bottle And The Blues
TTITLE7=Find Another Man
TTITLE8=Coming Back For More
TTITLE9=Roll It Over Again
TTITLE10=Leave A Light In Your Window
TTITLE11=Wassamatta Couch Potata
TTITLE12=You Gotta Run
TTITLE13=How Come Baby?
EXTD=
EXTT0=When Baby Don't Wanna Play
EXTT1=It's Getting Harder
EXTT2=Wise To Your Jive
EXTT3=You Wanna Take A Mile
EXTT4=Free From Loving You
EXTT5=Salty Water
EXTT6=Bottle And The Blues
EXTT7=Find Another Man
EXTT8=Coming Back For More
EXTT9=Roll It Over Again
EXTT10=Leave A Light In Your Window
EXTT11=Wassamatta Couch Potata
EXTT12=You Gotta Run
EXTT13=How Come Baby?
PLAYORDER=
